<svg width="38" height="65" viewBox="0 0 38 65" fill="none" xmlns="http://www.w3.org/2000/svg">
<path d="M21.5 3C21.5 1.61929 20.3807 0.5 19 0.5C17.6193 0.5 16.5 1.61929 16.5 3L21.5 3ZM17.2322 63.7678C18.2085 64.7441 19.7915 64.7441 20.7678 63.7678L36.6777 47.8579C37.654 46.8815 37.654 45.2986 36.6777 44.3223C35.7014 43.346 34.1184 43.346 33.1421 44.3223L19 58.4645L4.85787 44.3223C3.88156 43.346 2.29864 43.346 1.32233 44.3223C0.346022 45.2986 0.346022 46.8816 1.32233 47.8579L17.2322 63.7678ZM16.5 3L16.5 62L21.5 62L21.5 3L16.5 3Z" fill="white"/>
</svg>
