<svg width="43" height="24" viewBox="0 0 43 24" fill="none" xmlns="http://www.w3.org/2000/svg">
<g filter="url(#filter0_d_301_1401)">
<path d="M5 7C4.44772 7 4 7.44772 4 8C4 8.55228 4.44772 9 5 9V7ZM38.4344 8.70711C38.8249 8.31658 38.8249 7.68342 38.4344 7.29289L32.0704 0.928932C31.6799 0.538408 31.0467 0.538408 30.6562 0.928932C30.2657 1.31946 30.2657 1.95262 30.6562 2.34315L36.3131 8L30.6562 13.6569C30.2657 14.0474 30.2657 14.6805 30.6562 15.0711C31.0467 15.4616 31.6799 15.4616 32.0704 15.0711L38.4344 8.70711ZM5 9H37.7273V7H5V9Z" fill="white"/>
</g>
<defs>
<filter id="filter0_d_301_1401" x="0" y="0.636047" width="42.7275" height="22.7279" filterUnits="userSpaceOnUse" color-interpolation-filters="sRGB">
<feFlood flood-opacity="0" result="BackgroundImageFix"/>
<feColorMatrix in="SourceAlpha" type="matrix" values="0 0 0 0 0 0 0 0 0 0 0 0 0 0 0 0 0 0 127 0" result="hardAlpha"/>
<feOffset dy="4"/>
<feGaussianBlur stdDeviation="2"/>
<feComposite in2="hardAlpha" operator="out"/>
<feColorMatrix type="matrix" values="0 0 0 0 0 0 0 0 0 0 0 0 0 0 0 0 0 0 0.25 0"/>
<feBlend mode="normal" in2="BackgroundImageFix" result="effect1_dropShadow_301_1401"/>
<feBlend mode="normal" in="SourceGraphic" in2="effect1_dropShadow_301_1401" result="shape"/>
</filter>
</defs>
</svg>
