<svg width="37" height="16" viewBox="0 0 37 16" fill="none" xmlns="http://www.w3.org/2000/svg">
<path d="M1 7C0.447715 7 4.82823e-08 7.44772 0 8C-4.82823e-08 8.55228 0.447715 9 1 9L1 7ZM36.7071 8.70711C37.0976 8.31659 37.0976 7.68342 36.7071 7.2929L30.3431 0.928935C29.9526 0.53841 29.3195 0.53841 28.9289 0.928935C28.5384 1.31946 28.5384 1.95262 28.9289 2.34315L34.5858 8L28.9289 13.6569C28.5384 14.0474 28.5384 14.6805 28.9289 15.0711C29.3195 15.4616 29.9526 15.4616 30.3431 15.0711L36.7071 8.70711ZM1 9L36 9L36 7L1 7L1 9Z" fill="black"/>
</svg>
