<svg width="19" height="9" viewBox="0 0 19 9" fill="none" xmlns="http://www.w3.org/2000/svg">
<path d="M0.898438 4C0.622295 4 0.398438 4.22386 0.398438 4.5C0.398438 4.77614 0.622295 5 0.898438 5V4ZM18.8429 4.85355C19.0382 4.65829 19.0382 4.34171 18.8429 4.14645L15.6609 0.964466C15.4657 0.769204 15.1491 0.769204 14.9538 0.964466C14.7585 1.15973 14.7585 1.47631 14.9538 1.67157L17.7822 4.5L14.9538 7.32843C14.7585 7.52369 14.7585 7.84027 14.9538 8.03553C15.1491 8.2308 15.4657 8.2308 15.6609 8.03553L18.8429 4.85355ZM0.898438 5H18.4893V4H0.898438V5Z" fill="black"/>
</svg>
